<svg width="33" height="33" viewBox="0 0 33 33" fill="none" xmlns="http://www.w3.org/2000/svg">
<rect x="0.410889" y="0.0783691" width="32" height="32" rx="6" fill="#1F4D58"/>
<path fill-rule="evenodd" clip-rule="evenodd" d="M16.0147 5.41762C16.2596 5.27481 16.5624 5.27486 16.8073 5.41775L19.79 7.15831L18.9972 8.51694L16.4107 7.00762L13.8243 8.51582L13.0319 7.15693L16.0147 5.41762ZM10.5765 10.4103L8.75791 11.4716L10.5765 12.5328L9.78367 13.8915L7.98392 12.8412V14.5615H6.41089V11.4716C6.41089 11.1919 6.55942 10.9333 6.80099 10.7923L9.78367 9.05172L10.5765 10.4103ZM23.0381 9.05172L26.0208 10.7923C26.2624 10.9333 26.4109 11.1919 26.4109 11.4716V14.5615H24.8379V12.8412L23.0381 13.8915L22.2453 12.5328L24.0639 11.4716L22.2453 10.4103L23.0381 9.05172ZM13.8246 14.4263L16.4109 15.9355L18.9972 14.4263L19.79 15.7849L17.1974 17.2978V19.936H15.6244V17.2978L13.0318 15.7849L13.8246 14.4263ZM7.98392 17.5952V20.2334L10.5765 21.7463L9.78367 23.105L6.80099 21.3644C6.55942 21.2234 6.41089 20.9648 6.41089 20.6851V17.5952H7.98392ZM26.4109 17.5952V20.6851C26.4109 20.9648 26.2624 21.2234 26.0208 21.3644L23.0381 23.105L22.2453 21.7463L24.8379 20.2334V17.5952H26.4109ZM17.1974 22.9697V24.69L18.9972 23.6397L19.79 24.9984L16.8073 26.7389C16.5624 26.8819 16.2594 26.8819 16.0145 26.7389L13.0318 24.9984L13.8246 23.6397L15.6244 24.69V22.9697H17.1974Z" fill="#CAEE52"/>
</svg>
